<?xml version="1.0" encoding="UTF-8" standalone="no"?>
<!-- Created with Inkscape (http://www.inkscape.org/) -->

<svg
   version="1.1"
   id="svg2"
   width="668"
   height="668"
   viewBox="0 0 668 668"
   sodipodi:docname="about.eps"
   xmlns:inkscape="http://www.inkscape.org/namespaces/inkscape"
   xmlns:sodipodi="http://sodipodi.sourceforge.net/DTD/sodipodi-0.dtd"
   xmlns="http://www.w3.org/2000/svg"
   xmlns:svg="http://www.w3.org/2000/svg">
  <defs
     id="defs6" />
  <sodipodi:namedview
     id="namedview4"
     pagecolor="#ffffff"
     bordercolor="#000000"
     borderopacity="0.25"
     inkscape:showpageshadow="2"
     inkscape:pageopacity="0.0"
     inkscape:pagecheckerboard="0"
     inkscape:deskcolor="#d1d1d1" />
  <g
     id="g8"
     inkscape:groupmode="layer"
     inkscape:label="ink_ext_XXXXXX"
     transform="matrix(1.3333333,0,0,-1.3333333,0,668)">
    <g
       id="g10"
       transform="scale(0.1)">
      <path
         d="M 10,10 H 5000 V 5000 H 10 Z"
         style="fill:#ffffff;fill-opacity:1;fill-rule:nonzero;stroke:none"
         id="path12" />
      <path
         d="M 5010,0 H 0 V 5010 H 5010 V 5 0 m -5,5 V 5 10 5 M 10,5000 V 10 H 5000 V 5000 H 10"
         style="fill:#ffffff;fill-opacity:1;fill-rule:nonzero;stroke:none"
         id="path14" />
      <path
         d="m 1236.23,1220.71 c -266.625,479.1 -211.37,577.19 -455.25,764.16 -243.878,186.98 -373.953,625.97 0,1089.34 373.95,463.38 -45.765,1014.05 516.29,1327.85 495.06,276.4 758.85,-285.44 1265.83,-74.08 506.98,211.37 1124.82,308.92 1450,-138.2 325.17,-447.11 94.85,-880.62 281.83,-1327.73 186.97,-447.13 194.18,-952.62 -89.42,-1208.64 -372.46,-336.23 -626.13,-368.48 -845.46,-653 -380.23,-493.238 -1790.52,-378.64 -2123.82,220.3"
         style="fill:#eeeeee;fill-opacity:1;fill-rule:nonzero;stroke:none"
         id="path16" />
      <path
         d="m 2652.01,580.941 h -364.65 c -89.03,0 -161.2,72.18 -161.2,161.2 v 468.229 h 687.05 V 742.141 c 0,-89.02 -72.17,-161.2 -161.2,-161.2"
         style="fill:#365462;fill-opacity:1;fill-rule:nonzero;stroke:none"
         id="path18" />
      <path
         d="m 2126.16,826.039 h 687.05 v 35.371 h -687.05 v -35.371"
         style="fill:#1d2a30;fill-opacity:1;fill-rule:nonzero;stroke:none"
         id="path20" />
      <path
         d="m 2126.16,767.25 v -25.109 c 0,-3.469 0.3,-6.86 0.52,-10.27 h 686.02 c 0.21,3.41 0.51,6.801 0.51,10.27 v 25.109 h -687.05"
         style="fill:#1d2a30;fill-opacity:1;fill-rule:nonzero;stroke:none"
         id="path22" />
      <path
         d="m 2774.68,637.711 c 9.09,10.668 16.74,22.559 22.82,35.371 h -655.63 c 6.09,-12.812 13.73,-24.703 22.83,-35.371 h 609.98"
         style="fill:#1d2a30;fill-opacity:1;fill-rule:nonzero;stroke:none"
         id="path24" />
      <path
         d="m 3578.33,2743.19 c 0,612.28 -496.36,1108.64 -1108.64,1108.64 -612.29,0 -1108.65,-496.36 -1108.65,-1108.64 0,-259.86 89.44,-498.81 239.17,-687.82 l 238.77,-323.34 c 126.65,-171.5 194.98,-379.08 194.98,-592.27 v -38.12 C 2033.96,989.73 2124.68,899 2236.6,899 h 256.75 40.15 169.36 c 111.92,0 202.64,90.73 202.64,202.64 v 38.11 c 0,213.2 68.34,420.78 194.98,592.28 l 238.78,323.34 -0.07,0.02 c 149.71,189.01 239.14,427.95 239.14,687.8"
         style="fill:#fee796;fill-opacity:1;fill-rule:nonzero;stroke:none"
         id="path26" />
      <path
         d="m 2771.22,2868.93 c -2.07,-78.64 -29.9,-140.09 -63.39,-140.09 h -0.18 c -22.66,0.15 -40.6,11.9 -53.35,34.9 -37.06,66.81 -20.98,200.33 35.1,291.57 6.14,9.98 13.27,20.33 21.47,30.45 47.3,-71.72 61.9,-158.08 60.35,-216.83 z m -521.24,186.38 c 56.08,-91.24 72.16,-224.76 35.1,-291.57 -12.76,-23 -30.7,-34.75 -53.35,-34.9 h -0.19 c -34.02,0 -62.74,61.26 -65.44,139.67 -2.15,62.58 12.41,148.63 60.69,219.34 8.92,-10.77 16.63,-21.87 23.19,-32.54 z M 2657.04,899 h 36.23 l 425.58,1922.5 c 4.05,18.34 6.1,37.14 6.1,55.88 l -0.05,1.32 c -0.23,3.04 -25.5,304.19 -268.94,313.42 -52.03,1.99 -100.56,-16.06 -141.5,-51.82 -54.34,61.68 -133.64,104.42 -240.43,109.31 l -9.78,-0.03 c -106.11,-6.58 -185.13,-48.84 -239.58,-109.07 -40.88,35.62 -89.28,53.5 -141.26,51.61 -243.44,-9.23 -268.71,-310.38 -268.94,-313.42 l -0.05,-1.32 c 0,-18.77 2.06,-37.57 6.12,-55.88 L 2246.1,899 h 36.22 l -427.25,1930.15 c -3.44,15.57 -5.22,31.55 -5.27,47.51 1.28,14.25 27.55,272.25 234.95,280.11 49.51,1.97 88.27,-17.48 117.72,-43.63 -51.84,-71.25 -74.65,-160.93 -71.72,-245.85 3.53,-102.46 44.94,-173.83 100.77,-173.83 h 0.46 c 35.84,0.25 64.9,18.62 84.04,53.12 43.22,77.93 27.11,224.73 -35.91,327.25 -9.61,15.63 -20.04,29.82 -31.2,42.49 46.28,52.43 115.53,91.64 216.43,97.91 l 7.88,0.02 c 100.87,-4.63 169.9,-45.29 215.91,-99.45 -10.65,-12.29 -20.63,-25.96 -29.86,-40.97 -63.02,-102.52 -79.13,-249.32 -35.92,-327.25 19.14,-34.5 48.2,-52.87 84.04,-53.12 56.7,-0.65 96.42,69.75 99.19,174.54 2.25,84.8 -20.17,173.85 -70.25,244.63 29.51,26.39 68.36,46.06 118.29,44.14 208.72,-7.91 233.47,-262.04 234.95,-280.07 -0.04,-15.96 -1.82,-31.95 -5.27,-47.55 L 2657.04,899"
         style="fill:#fbbf0e;fill-opacity:1;fill-rule:nonzero;stroke:none"
         id="path28" />
      <path
         d="m 2469.69,3944.12 c -13.02,0 -23.59,10.56 -23.59,23.58 v 197.22 c 0,13.03 10.57,23.58 23.59,23.58 13.02,0 23.58,-10.55 23.58,-23.58 V 3967.7 c 0,-13.02 -10.56,-23.58 -23.58,-23.58"
         style="fill:#1d2a30;fill-opacity:1;fill-rule:nonzero;stroke:none"
         id="path30" />
      <path
         d="m 3919.54,2639.98 h -197.22 c -13.02,0 -23.58,10.56 -23.58,23.58 0,13.02 10.56,23.58 23.58,23.58 h 197.22 c 13.02,0 23.59,-10.56 23.59,-23.58 0,-13.02 -10.57,-23.58 -23.59,-23.58"
         style="fill:#1d2a30;fill-opacity:1;fill-rule:nonzero;stroke:none"
         id="path32" />
      <path
         d="m 1221.67,2639.98 h -197.22 c -13.02,0 -23.58,10.56 -23.58,23.58 0,13.02 10.56,23.58 23.58,23.58 h 197.22 c 13.02,0 23.57,-10.56 23.57,-23.58 0,-13.02 -10.55,-23.58 -23.57,-23.58"
         style="fill:#1d2a30;fill-opacity:1;fill-rule:nonzero;stroke:none"
         id="path34" />
      <path
         d="m 3471.98,1639.99 c -6.02,0 -12.06,2.3 -16.67,6.91 l -139.46,139.46 c -9.21,9.22 -9.21,24.14 0,33.35 9.22,9.21 24.14,9.21 33.35,0 l 139.46,-139.47 c 9.21,-9.2 9.21,-24.13 0,-33.34 -4.61,-4.61 -10.64,-6.91 -16.68,-6.91"
         style="fill:#1d2a30;fill-opacity:1;fill-rule:nonzero;stroke:none"
         id="path36" />
      <path
         d="m 1564.3,3547.68 c -6.04,0 -12.07,2.31 -16.68,6.91 l -139.45,139.45 c -9.21,9.21 -9.21,24.14 0,33.35 9.2,9.21 24.15,9.21 33.35,0 l 139.45,-139.45 c 9.21,-9.21 9.21,-24.15 0,-33.35 -4.6,-4.6 -10.64,-6.91 -16.67,-6.91"
         style="fill:#1d2a30;fill-opacity:1;fill-rule:nonzero;stroke:none"
         id="path38" />
      <path
         d="m 3332.53,3547.68 c -6.04,0 -12.07,2.31 -16.68,6.91 -9.21,9.2 -9.21,24.14 0,33.35 l 139.46,139.45 c 9.21,9.21 24.13,9.21 33.35,0 9.21,-9.21 9.21,-24.14 0,-33.35 L 3349.2,3554.59 c -4.6,-4.6 -10.64,-6.91 -16.67,-6.91"
         style="fill:#1d2a30;fill-opacity:1;fill-rule:nonzero;stroke:none"
         id="path40" />
      <path
         d="m 1424.84,1639.99 c -6.03,0 -12.06,2.3 -16.67,6.91 -9.21,9.21 -9.21,24.14 0,33.34 l 139.45,139.47 c 9.21,9.21 24.14,9.21 33.35,0 9.21,-9.21 9.21,-24.13 0,-33.35 L 1441.52,1646.9 c -4.6,-4.61 -10.64,-6.91 -16.68,-6.91"
         style="fill:#1d2a30;fill-opacity:1;fill-rule:nonzero;stroke:none"
         id="path42" />
      <path
         d="m 2469.69,1119 c 0,0 -713.33,82.17 -753.29,-613.93 -1.94,-33.738 25.13,-62.148 58.92,-62.148 h 694.37 694.36 c 33.79,0 60.86,28.41 58.93,62.148 -39.97,696.1 -753.29,613.93 -753.29,613.93"
         style="fill:#fbbf0e;fill-opacity:1;fill-rule:nonzero;stroke:none"
         id="path44" />
      <path
         d="M 2025.89,442.922 V 805.879 L 1904.18,442.922 Z"
         style="fill:#d79c16;fill-opacity:1;fill-rule:nonzero;stroke:none"
         id="path46" />
      <path
         d="M 2913.49,442.922 V 805.879 L 3035.2,442.922 Z"
         style="fill:#d79c16;fill-opacity:1;fill-rule:nonzero;stroke:none"
         id="path48" />
      <path
         d="m 2224.51,1557.41 v -464.28 c 0,-135.411 109.77,-209.798 245.18,-209.798 135.41,0 245.17,74.387 245.17,209.798 v 464.28 h -490.35"
         style="fill:#f9ad95;fill-opacity:1;fill-rule:nonzero;stroke:none"
         id="path50" />
      <path
         d="m 2714.86,1357.88 -490.35,-14.11 v -128.84 c 46.07,-38.73 129.24,-91.25 245.18,-95.93 103.03,-4.15 189.04,52.13 245.17,102.99 v 135.89"
         style="fill:#f6865e;fill-opacity:1;fill-rule:nonzero;stroke:none"
         id="path52" />
      <path
         d="m 2012.63,1795.55 c 0,0 -103.61,245.21 -100.16,473.16 3.45,227.95 279.75,259.03 400.63,359.19 120.88,100.15 134.7,155.41 169.23,117.42 34.55,-37.99 -51.8,-131.24 -51.8,-131.24 0,0 241.76,107.07 310.84,62.17 69.07,-44.9 -51.81,-69.08 -51.81,-69.08 0,0 207.22,-68.16 252.12,-191.22 44.89,-123.07 -120.88,-60.9 -120.88,-60.9 l 13.81,44.9 c 0,0 117.98,-44.9 140.16,-183.05 22.16,-138.15 -33.09,-370.37 -77.99,-451.12 -44.9,-80.75 -483.52,-115.28 -483.52,-115.28 l -400.63,145.05"
         style="fill:#1d2a30;fill-opacity:1;fill-rule:nonzero;stroke:none"
         id="path54" />
      <path
         d="m 2838.82,1851.98 c -2.31,0 -4.54,-0.23 -6.82,-0.34 l -6.36,253.3 c 0,0 15.03,120.06 -143.96,168.73 0,0 -61.1,-67.85 -279.05,-35.69 -197.94,29.2 -243.37,87.61 -243.37,87.61 0,0 -85.55,-35.7 -88.8,-188.2 -1.35,-63.43 -5.71,-176.27 3.41,-286.44 -72.9,-8.42 -138.08,-73.32 -131.6,-146.87 6.54,-74.07 71.33,-128.91 145.23,-123.55 2.21,-21.25 3.57,-33.8 3.57,-33.8 h 0.01 c 17.15,-191.02 177.58,-340.75 373.07,-340.75 206.73,0 374.35,167.44 374.65,374.11 l 0.02,-0.01 c 75.08,0 135.95,60.87 135.95,135.96 0,75.07 -60.87,135.94 -135.95,135.94"
         style="fill:#f9ad95;fill-opacity:1;fill-rule:nonzero;stroke:none"
         id="path56" />
      <path
         d="m 2640.65,2249.59 c 10.21,4.31 19.78,9.93 28.23,16.61 8.38,6.76 15.41,15.11 19.04,24.55 3.88,9.27 4.02,19.75 1.15,29.08 -2.93,9.47 -8.44,18.33 -15.16,26.26 -13.6,15.83 -30.82,29 -49.25,39.92 -18.3,11.22 -38,20.28 -58.2,27.87 -40.4,15.81 -83.29,22.53 -127.06,26.04 -43.72,3.17 -87.88,4.14 -132.2,3.24 43.73,7.52 88.22,11.06 132.86,10.26 44.43,-0.67 90.2,-6.88 132.57,-23.05 21.18,-7.95 41.67,-17.89 60.93,-30.02 18.98,-12.48 37.33,-26.76 51.32,-45.63 6.92,-9.39 12.9,-19.99 15.59,-31.99 2.57,-12.06 1.11,-24.95 -4.54,-35.7 -5.76,-10.7 -14.69,-18.72 -24.29,-24.71 -9.62,-6.04 -20.15,-10.28 -30.99,-12.73"
         style="fill:#365462;fill-opacity:1;fill-rule:nonzero;stroke:none"
         id="path58" />
      <path
         d="m 2741.04,2359.24 c 37.89,-6.2 75.84,-11.35 113.46,-13.5 18.74,-0.63 37.71,-1.03 55.17,2.57 8.57,1.8 17.04,4.44 22.59,9.01 2.82,2.22 4.7,4.81 5.85,7.72 0.52,1.3 0.93,3.26 1.37,5.4 0.37,2.04 0.68,4.12 0.84,6.2 1.77,16.79 -3.49,34.38 -11.57,50.47 -7.97,16.32 -19.2,31.26 -31.24,45.53 -24.65,28.2 -53.71,53.1 -84.13,76.52 34.08,-17.65 66.66,-39.27 94.24,-67.18 13.85,-13.85 26.2,-29.51 35.96,-47.18 9.46,-17.63 16.16,-38.18 14.35,-59.79 -0.24,-2.67 -0.67,-5.34 -1.2,-7.99 -0.56,-2.55 -1.11,-5.28 -2.36,-8.44 -2.42,-5.98 -6.63,-11.19 -11.38,-14.8 -9.63,-7.34 -20.21,-10.14 -30.28,-11.92 -20.33,-3.07 -40,-2.14 -59.34,0.14 -38.66,4.57 -76.09,14.39 -112.33,27.24"
         style="fill:#365462;fill-opacity:1;fill-rule:nonzero;stroke:none"
         id="path60" />
      <path
         d="m 2696.35,2687.17 c -34.81,-4.89 -68.68,-12.81 -102.16,-21.91 -33.39,-9.38 -66.35,-20.07 -98.66,-32.55 -16.03,-6.52 -32.34,-12.46 -48.02,-19.85 l -23.83,-10.45 c -7.76,-3.87 -15.59,-7.62 -23.46,-11.31 -15.85,-7.17 -30.97,-15.79 -46.64,-23.53 -15.53,-7.99 -30.54,-16.91 -46.38,-24.75 13.62,11.08 27.46,22.02 41.87,32.17 14.75,9.56 29.12,19.94 44.67,28.29 30.27,18.26 62.7,32.62 95.45,45.93 33.13,12.42 67.13,22.65 101.85,29.43 34.65,6.73 70.09,10.96 105.31,8.53"
         style="fill:#365462;fill-opacity:1;fill-rule:nonzero;stroke:none"
         id="path62" />
      <path
         d="m 2297.25,1936.21 c 0,-18.92 -15.35,-34.27 -34.28,-34.27 -18.93,0 -34.27,15.35 -34.27,34.27 0,18.94 15.34,34.28 34.27,34.28 18.93,0 34.28,-15.34 34.28,-34.28"
         style="fill:#1d2a30;fill-opacity:1;fill-rule:nonzero;stroke:none"
         id="path64" />
      <path
         d="m 2663.14,1936.21 c 0,-18.92 -15.35,-34.27 -34.27,-34.27 -18.94,0 -34.28,15.35 -34.28,34.27 0,18.94 15.34,34.28 34.28,34.28 18.92,0 34.27,-15.34 34.27,-34.28"
         style="fill:#1d2a30;fill-opacity:1;fill-rule:nonzero;stroke:none"
         id="path66" />
      <path
         d="m 2182.58,1912.09 c -1.23,19.21 6.1,39.4 20.63,54.64 14.39,15.72 36.57,23.28 56.99,23.96 20.29,1.07 42.48,-5.03 58.68,-18.79 16.12,-13.75 25.09,-33.86 24.48,-53.11 -9.83,16.3 -22.04,29.15 -36.18,36.61 -14.08,7.42 -29.7,10.28 -46.12,9.58 -16.08,-0.76 -31.51,-4.17 -44.64,-13.49 -13.43,-8.88 -24.64,-22.75 -33.84,-39.4"
         style="fill:#1d2a30;fill-opacity:1;fill-rule:nonzero;stroke:none"
         id="path68" />
      <path
         d="m 2548.47,1912.09 c -1.23,19.21 6.1,39.4 20.63,54.64 14.4,15.72 36.57,23.28 56.99,23.96 20.3,1.07 42.47,-5.03 58.68,-18.79 16.12,-13.75 25.09,-33.86 24.49,-53.11 -9.84,16.3 -22.04,29.15 -36.19,36.61 -14.08,7.42 -29.7,10.28 -46.12,9.58 -16.08,-0.76 -31.51,-4.17 -44.64,-13.49 -13.42,-8.88 -24.64,-22.75 -33.84,-39.4"
         style="fill:#1d2a30;fill-opacity:1;fill-rule:nonzero;stroke:none"
         id="path70" />
      <path
         d="m 2389.09,2016.73 c 14.72,-43.13 23.09,-88.45 26.79,-134.07 2.01,-22.83 2.44,-45.79 1.91,-68.76 -0.71,-22.94 -2.84,-45.79 -4.81,-68.28 -1.04,-11.21 -2.13,-22.41 -2.15,-33.14 -0.1,-10.65 1.1,-21.28 5.57,-27.84 4.08,-6.66 13.45,-9.75 23.83,-10.7 9.97,-0.99 19.67,0.62 27.81,6.06 16.5,10.92 25.14,32.96 29.08,54.29 4.22,21.75 3.89,44.58 -0.44,66.86 8.13,-21.36 10.41,-44.79 8.86,-68 -1.03,-11.61 -3.38,-23.26 -7.83,-34.49 -4.31,-11.19 -11.43,-22.02 -21.88,-29.82 -10.38,-7.99 -24.24,-11.23 -36.8,-10.21 -6.11,0.32 -12.5,1.29 -18.92,3.64 -6.39,2.25 -12.91,6.63 -17.22,12.68 -4.41,5.96 -6.61,12.73 -7.76,19.02 -1.17,6.35 -1.48,12.47 -1.55,18.44 -0.1,11.96 0.9,23.4 1.81,34.79 4.78,45.24 8.02,89.66 6.68,134.72 -1.37,44.94 -4.97,90.04 -12.98,134.81"
         style="fill:#1d2a30;fill-opacity:1;fill-rule:nonzero;stroke:none"
         id="path72" />
      <path
         d="m 2315.62,1603.6 c 16.79,-19.93 37.09,-35.83 59.38,-46.44 22.28,-10.7 46.79,-15.18 71.22,-13.93 24.71,0.83 49.38,6.17 72.2,15.86 22.62,10.01 44.01,24.33 60.59,44.51 -10.36,-24.3 -31.05,-43.72 -54.47,-56.87 -11.69,-6.94 -24.63,-11.15 -37.54,-15.18 -13.19,-3.08 -26.39,-5.45 -40.03,-5.97 l -10.25,-0.18 c -3.41,0.03 -6.83,0.52 -10.24,0.77 -6.85,0.36 -13.59,1.74 -20.29,3.25 -13.19,3.6 -26.26,8.24 -37.72,15.64 -23.23,14.01 -42.19,34.55 -52.85,58.54"
         style="fill:#1d2a30;fill-opacity:1;fill-rule:nonzero;stroke:none"
         id="path74" />
      <path
         d="m 2148.75,2079.12 c 25.59,7.21 80.99,19.82 161.59,22.21 8.86,0.26 14.03,10.14 8.95,17.41 -10.8,15.47 -35.63,35.13 -91.2,30.12 -66.45,-6 -86.83,-36.03 -92.96,-56.16 -2.52,-8.25 5.33,-15.9 13.62,-13.58"
         style="fill:#1d2a30;fill-opacity:1;fill-rule:nonzero;stroke:none"
         id="path76" />
      <path
         d="m 2719.87,2079.12 c -25.58,7.21 -80.98,19.82 -161.58,22.21 -8.87,0.26 -14.03,10.14 -8.95,17.41 10.8,15.47 35.62,35.13 91.2,30.12 66.44,-6 86.82,-36.03 92.96,-56.16 2.52,-8.25 -5.34,-15.9 -13.63,-13.58"
         style="fill:#1d2a30;fill-opacity:1;fill-rule:nonzero;stroke:none"
         id="path78" />
      <path
         d="m 2074.8,1616.76 c -23.46,0.19 -47.66,8.86 -66.14,25.72 -19.21,16.5 -28.85,42.26 -30.77,66.73 -2.05,24.4 4.66,51.77 22.51,70.14 17.37,18.56 41.93,27.5 65.3,27.83 -22.03,-7.55 -42.09,-19.65 -54.78,-36.77 -6.04,-8.64 -11.21,-17.87 -13.09,-28.3 -1.69,-4.94 -1.6,-10.42 -2.56,-15.58 0.05,-5.35 -0.16,-10.73 0.25,-16.07 0.94,-10.69 2.52,-21.42 6.66,-31.14 1.46,-5.16 4.39,-9.58 6.73,-14.35 3.09,-4.3 5.84,-8.9 9.53,-12.83 14.2,-16.21 34.23,-27.98 56.36,-35.38"
         style="fill:#f6865e;fill-opacity:1;fill-rule:nonzero;stroke:none"
         id="path80" />
      <path
         d="m 2841.18,1813.83 c 23.46,-0.2 47.66,-8.87 66.14,-25.72 19.21,-16.51 28.85,-42.26 30.78,-66.73 2.04,-24.41 -4.67,-51.77 -22.51,-70.14 -17.39,-18.56 -41.95,-27.5 -65.32,-27.83 22.04,7.55 42.1,19.65 54.79,36.77 6.03,8.64 11.21,17.87 13.09,28.3 1.69,4.94 1.61,10.42 2.55,15.57 -0.04,5.35 0.17,10.74 -0.24,16.08 -0.94,10.69 -2.51,21.41 -6.65,31.14 -1.47,5.16 -4.4,9.58 -6.74,14.35 -3.09,4.29 -5.83,8.89 -9.53,12.83 -14.2,16.21 -34.22,27.98 -56.36,35.38"
         style="fill:#f6865e;fill-opacity:1;fill-rule:nonzero;stroke:none"
         id="path82" />
      <path
         d="m 3919.6,1244.37 0.12,0.04 -93.71,262.08 c -4.49,12.53 -18.32,19.02 -30.81,14.43 l -198.12,-72.69 c -12.26,-4.49 -18.65,-17.97 -14.39,-30.31 l 67.58,-195.64 c -21.05,1.21 -43.59,-4.21 -68.29,-41.69 -8.24,-12.52 -12.45,-27.39 -10.64,-42.27 5.6,-46.17 52.12,-77.63 99.13,-61.97 26.34,8.77 46.01,32.46 49.77,59.97 1.66,12.22 0.46,23.79 -2.94,34.29 l 0.95,0.32 -73.93,210.85 154.76,56.79 52.58,-144.87 c -21.47,0.71 -44.11,-4.4 -72.25,-59.08 -3.82,-7.43 -5.87,-15.85 -4.96,-24.15 4.75,-42.83 44.64,-73.24 87.77,-65.68 25.76,4.52 47.03,23.5 56.62,47.84 7.65,19.46 6.23,36.67 0.76,51.74"
         style="fill:#1d2a30;fill-opacity:1;fill-rule:nonzero;stroke:none"
         id="path84" />
      <path
         d="m 3963.06,2167.7 0.9,-0.43 96.2,201.66 31.91,71.9 -18.56,8.53 c -11.86,5.45 -25.9,0.4 -31.59,-11.35 l -89.98,-186.41 h -0.01 c -14.37,16.05 -34.73,28.26 -80.68,17.95 -11.79,-2.65 -22.85,-8.63 -30.93,-17.61 -32.93,-36.56 -23.04,-95.17 23.08,-118.08 24.86,-12.34 55.52,-9.41 77.57,7.45 9.79,7.49 17.1,16.55 22.09,26.39"
         style="fill:#fbbf0e;fill-opacity:1;fill-rule:nonzero;stroke:none"
         id="path86" />
      <path
         d="m 1759.95,3975.59 c -45.61,-28.9 -106.21,-15.29 -135.1,30.32 -28.88,45.61 -15.28,106.21 30.33,135.1 45.61,28.89 106.22,15.28 135.1,-30.32 28.89,-45.61 15.28,-106.22 -30.33,-135.1 z m 170.51,140.49 -39,1.09 c -4.9,15.33 -11.58,30.34 -20.59,44.56 -10.01,15.81 -22.04,29.54 -35.41,41.35 l 16.15,37.09 c 7.42,17.05 -0.38,36.88 -17.43,44.31 l -51.47,22.41 c -17.04,7.42 -36.88,-0.39 -44.31,-17.44 l -16.82,-38.65 c -19.89,1.47 -40.03,-0.06 -59.78,-4.86 l -22.71,35.85 c -9.95,15.71 -30.75,20.38 -46.46,10.43 l -47.42,-30.03 c -15.71,-9.96 -20.38,-30.75 -10.42,-46.46 l 22.7,-35.85 c -12.9,-15.96 -22.96,-33.7 -30.14,-52.5 l -42.14,1.17 c -18.59,0.53 -34.08,-14.12 -34.6,-32.71 l -1.57,-56.11 c -0.52,-18.58 14.12,-34.07 32.71,-34.59 l 40.45,-1.14 c 4.95,-16.94 12.16,-33.5 22.07,-49.13 9.11,-14.39 19.96,-26.98 31.9,-38.06 l -15.56,-35.77 c -7.43,-17.04 0.38,-36.88 17.42,-44.3 l 51.47,-22.41 c 17.05,-7.42 36.89,0.38 44.31,17.43 l 14.98,34.41 c 21.42,-2.11 43.22,-0.69 64.55,4.49 l 19.79,-31.24 c 9.95,-15.7 30.74,-20.37 46.45,-10.43 l 47.42,30.04 c 15.71,9.95 20.38,30.75 10.43,46.46 l -19.78,31.23 c 13.92,17.23 24.6,36.52 31.85,56.99 l 37.51,-1.05 c 18.58,-0.52 34.07,14.12 34.6,32.71 l 1.57,56.11 c 0.52,18.59 -14.13,34.08 -32.72,34.6"
         style="fill:#fbbf0e;fill-opacity:1;fill-rule:nonzero;stroke:none"
         id="path88" />
      <path
         d="m 1061.38,3111.43 -385.181,-273.1 -69.113,97.83 385.176,273.09 c 14.658,10.36 34.958,6.87 45.318,-7.79 l 31.59,-44.72 c 10.36,-14.66 6.87,-34.95 -7.79,-45.31"
         style="fill:#1d2a30;fill-opacity:1;fill-rule:nonzero;stroke:none"
         id="path90" />
      <path
         d="m 621.117,2923.03 -14.031,13.13 c 0,0 -9.598,-57.23 -59.867,-100.08 l 6.875,-9.72 6.867,-9.72 c 57.176,33.07 115.238,21.69 115.238,21.69 -23.086,49.63 18.465,86.38 18.465,86.38 -33.91,-20.68 -59.082,-11.72 -73.547,-1.68"
         style="fill:#fbbf0e;fill-opacity:1;fill-rule:nonzero;stroke:none"
         id="path92" />
      <path
         d="m 547.219,2836.08 21.316,0.49 -7.574,-19.93 -28.926,-20.44 c -3.512,-2.48 -8.367,-1.65 -10.847,1.87 l -4.762,6.73 c -2.481,3.51 -1.645,8.37 1.871,10.85 l 28.922,20.43"
         style="fill:#1d2a30;fill-opacity:1;fill-rule:nonzero;stroke:none"
         id="path94" />
      <path
         d="m 3744.7,3840.4 c -16.17,23.11 -10.55,54.94 12.56,71.1 23.1,16.17 54.94,10.54 71.1,-12.56 16.17,-23.11 10.54,-54.94 -12.57,-71.11 -23.09,-16.16 -54.93,-10.54 -71.09,12.57 z m 149.53,256.65 c -103.5,269.06 -367.34,261.43 -518.29,96.01 0,0 -124.78,-134.65 -33.75,-270.36 91.02,-135.71 221.55,-44.39 335.63,-129.08 114.08,-84.69 319.9,34.38 216.41,303.43"
         style="fill:#fbbf0e;fill-opacity:1;fill-rule:nonzero;stroke:none"
         id="path96" />
      <path
         d="m 3573.13,3919.54 c 0,-21.42 -17.36,-38.78 -38.77,-38.78 -21.43,0 -38.79,17.36 -38.79,38.78 0,21.42 17.36,38.79 38.79,38.79 21.41,0 38.77,-17.37 38.77,-38.79"
         style="fill:#1d2a30;fill-opacity:1;fill-rule:nonzero;stroke:none"
         id="path98" />
      <path
         d="m 3453.54,3972.42 c 0,-21.42 -17.37,-38.79 -38.78,-38.79 -21.42,0 -38.78,17.37 -38.78,38.79 0,21.41 17.36,38.78 38.78,38.78 21.41,0 38.78,-17.37 38.78,-38.78"
         style="fill:#1d2a30;fill-opacity:1;fill-rule:nonzero;stroke:none"
         id="path100" />
      <path
         d="m 3462.35,4110.89 c 0,-21.41 -17.36,-38.78 -38.79,-38.78 -21.41,0 -38.77,17.37 -38.77,38.78 0,21.42 17.36,38.79 38.77,38.79 21.43,0 38.79,-17.37 38.79,-38.79"
         style="fill:#1d2a30;fill-opacity:1;fill-rule:nonzero;stroke:none"
         id="path102" />
      <path
         d="m 3555.51,4204.05 c 0,-21.42 -17.37,-38.78 -38.78,-38.78 -21.42,0 -38.79,17.36 -38.79,38.78 0,21.42 17.37,38.79 38.79,38.79 21.41,0 38.78,-17.37 38.78,-38.79"
         style="fill:#1d2a30;fill-opacity:1;fill-rule:nonzero;stroke:none"
         id="path104" />
      <path
         d="m 3684.46,4219.16 c 0,-21.42 -17.36,-38.78 -38.78,-38.78 -21.42,0 -38.79,17.36 -38.79,38.78 0,21.42 17.37,38.78 38.79,38.78 21.42,0 38.78,-17.36 38.78,-38.78"
         style="fill:#1d2a30;fill-opacity:1;fill-rule:nonzero;stroke:none"
         id="path106" />
      <path
         d="M 1164.24,1819.32 795.996,1648.94 c -14.773,-6.84 -20.957,-24.55 -13.641,-39.1 l 255.795,-508.76 c 7.14,-14.2 24.42,-19.93 38.63,-12.83 l 374.13,187.06 c 14.49,7.25 20.15,25 12.55,39.31 l -261.68,492.08 c -7.19,13.51 -23.66,19.04 -37.54,12.62"
         style="fill:#fbbf0e;fill-opacity:1;fill-rule:nonzero;stroke:none"
         id="path108" />
      <path
         d="m 1185.33,1717.82 -308.767,-149.36 -7.485,15.48 308.762,149.36 7.49,-15.48"
         style="fill:#1d2a30;fill-opacity:1;fill-rule:nonzero;stroke:none"
         id="path110" />
      <path
         d="m 1091.38,1628.66 -197.681,-95.63 -7.484,15.48 197.685,95.63 7.48,-15.48"
         style="fill:#1d2a30;fill-opacity:1;fill-rule:nonzero;stroke:none"
         id="path112" />
      <path
         d="m 1171.49,1623.7 -260.65,-126.1 -7.488,15.49 260.658,126.09 7.48,-15.48"
         style="fill:#1d2a30;fill-opacity:1;fill-rule:nonzero;stroke:none"
         id="path114" />
      <path
         d="m 1236.74,1611.54 -308.76,-149.36 -7.492,15.48 308.762,149.36 7.49,-15.48"
         style="fill:#1d2a30;fill-opacity:1;fill-rule:nonzero;stroke:none"
         id="path116" />
      <path
         d="m 1167.56,1534.37 -222.443,-107.62 -7.488,15.48 222.441,107.61 7.49,-15.47"
         style="fill:#1d2a30;fill-opacity:1;fill-rule:nonzero;stroke:none"
         id="path118" />
      <path
         d="m 1241.31,1526.32 -279.052,-134.99 -7.492,15.48 279.054,134.99 7.49,-15.48"
         style="fill:#1d2a30;fill-opacity:1;fill-rule:nonzero;stroke:none"
         id="path120" />
    </g>
  </g>
</svg>
