<?xml version="1.0" encoding="UTF-8" standalone="no"?>
<!-- Created with Inkscape (http://www.inkscape.org/) -->

<svg
   version="1.1"
   id="svg2"
   width="1066.6667"
   height="1066.6667"
   viewBox="0 0 1066.6667 1066.6667"
   sodipodi:docname="skills.eps"
   xmlns:inkscape="http://www.inkscape.org/namespaces/inkscape"
   xmlns:sodipodi="http://sodipodi.sourceforge.net/DTD/sodipodi-0.dtd"
   xmlns="http://www.w3.org/2000/svg"
   xmlns:svg="http://www.w3.org/2000/svg">
  <defs
     id="defs6">
    <clipPath
       clipPathUnits="userSpaceOnUse"
       id="clipPath18">
      <path
         d="M 628,714 V 6562 H 8000 V 714 Z"
         id="path16" />
    </clipPath>
  </defs>
  <sodipodi:namedview
     id="namedview4"
     pagecolor="#ffffff"
     bordercolor="#000000"
     borderopacity="0.25"
     inkscape:showpageshadow="2"
     inkscape:pageopacity="0.0"
     inkscape:pagecheckerboard="0"
     inkscape:deskcolor="#d1d1d1" />
  <g
     id="g8"
     inkscape:groupmode="layer"
     inkscape:label="ink_ext_XXXXXX"
     transform="matrix(1.3333333,0,0,-1.3333333,0,1066.6667)">
    <g
       id="g10"
       transform="scale(0.1)">
      <g
         id="g12">
        <g
           id="g14"
           clip-path="url(#clipPath18)">
          <path
             d="m 7641.41,3969.28 -16.05,24.09 46.52,30.99 16.05,-24.09 -46.52,-30.99 m -93.02,-62 -16.06,24.09 46.52,31 16.04,-24.09 -46.5,-31 m -93.03,-61.99 -16.05,24.09 46.51,31 16.05,-24.09 -46.51,-31 m -93.04,-61.99 -16.04,24.09 46.51,30.99 16.05,-24.08 -46.52,-31 m -93.02,-61.99 -16.05,24.09 46.51,31 16.05,-24.09 -46.51,-31 m -93.03,-61.99 -16.04,24.09 46.5,30.99 16.05,-24.08 -46.51,-31 m -93.03,-61.99 -16.05,24.09 46.52,30.99 16.05,-24.08 -46.52,-31 m -93.03,-61.99 -16.05,24.09 46.52,30.99 16.05,-24.09 -46.52,-30.99 m -93.02,-61.99 -16.05,24.08 46.51,31 16.05,-24.08 -46.51,-31 m -93.03,-61.99 -16.05,24.08 46.51,31 16.04,-24.09 -46.5,-30.99 m -1071.46,-25.67 -35.52,43.15 22.34,18.4 35.53,-43.15 -22.35,-18.4 m -108.77,-17.2 -16.03,24.1 46.55,30.95 16.03,-24.1 -46.55,-30.95 m 1087.2,-19.13 -16.05,24.09 46.51,31 16.05,-24.09 -46.51,-31 m -1180.29,-42.78 -16.02,24.11 46.54,30.95 16.03,-24.1 -46.55,-30.96 m 272.92,-7.2 -35.53,43.15 22.35,18.41 35.52,-43.16 -22.34,-18.4 m 814.34,-12 -16.06,24.09 46.52,30.99 16.05,-24.09 -46.51,-30.99 m -1180.34,-42.7 -16.03,24.1 46.55,30.96 16.03,-24.1 -46.55,-30.96 m 1087.31,-19.3 -16.05,24.09 46.51,30.99 16.06,-24.08 -46.52,-31 m -650.26,-12.3 -35.53,43.15 22.34,18.4 35.54,-43.16 -22.35,-18.39 m -530.13,-30.31 -16.04,24.1 46.55,30.96 16.03,-24.1 -46.54,-30.96 m 1087.37,-19.38 -16.06,24.09 46.51,31 16.05,-24.09 -46.5,-31 m -486.19,-36.62 -35.53,43.16 22.34,18.4 35.54,-43.16 -22.35,-18.4 m -694.27,-5.9 -16.03,24.1 46.54,30.95 16.03,-24.1 -46.54,-30.95 m 1087.42,-19.47 -16.05,24.09 46.52,30.99 16.05,-24.08 -46.52,-31 m -1180.5,-42.44 -16.04,24.11 46.55,30.94 16.03,-24.1 -46.54,-30.95 m 858.4,-18.5 -35.52,43.16 22.34,18.4 35.53,-43.15 -22.35,-18.41 m 229.08,-1.05 -16.06,24.09 46.51,30.99 16.06,-24.08 -46.51,-31 m -1180.57,-42.35 -16.03,24.1 46.54,30.95 16.03,-24.1 -46.54,-30.95 m -1070.92,-18.64 -34.58,42 10.02,8.25 -8.35,11.97 12.19,8.49 43.07,-52.31 -22.35,-18.4 m 2158.45,-1 -16.05,24.09 46.52,30.99 16.05,-24.08 -46.52,-31 m -64.98,-23.26 -35.53,43.15 22.34,18.4 35.53,-43.15 -22.34,-18.4 m -2201.56,-1.16 -16.55,23.75 45.87,31.95 16.55,-23.76 -45.87,-31.94 m 1085.92,-17.85 -16.03,24.1 46.55,30.95 16.03,-24.1 -46.55,-30.95 m -906.78,-43.03 -35.53,43.15 22.35,18.4 35.53,-43.16 -22.35,-18.39 m -270.88,-3.01 -16.54,23.75 45.86,31.94 16.55,-23.75 -45.87,-31.94 m 1084.58,-15.86 -16.03,24.1 46.54,30.95 16.03,-24.11 -46.54,-30.94 m -1176.31,-48.04 -16.54,23.76 45.85,31.94 16.55,-23.75 -45.86,-31.95 m 1083.22,-13.87 -16.03,24.1 46.55,30.96 16.03,-24.11 -46.55,-30.95 m -649.55,-5.53 -35.53,43.16 22.35,18.39 35.53,-43.15 -22.35,-18.4 m -525.41,-44.48 -16.54,23.75 45.87,31.95 16.54,-23.76 -45.87,-31.94 m 1081.88,-11.89 -16.03,24.1 46.54,30.95 16.03,-24.1 -46.54,-30.95 m -485.42,-29.93 -35.53,43.15 22.35,18.4 35.52,-43.16 -22.34,-18.39 m -688.19,-22.08 -16.55,23.76 45.87,31.94 16.54,-23.75 -45.86,-31.95 m 1080.52,-9.9 -16.02,24.1 46.53,30.96 16.03,-24.11 -46.54,-30.95 m -1172.25,-53.99 -16.55,23.76 45.87,31.94 16.54,-23.75 -45.86,-31.95 m 850.97,-0.34 -35.53,43.16 22.35,18.39 35.53,-43.15 -22.35,-18.4 m 228.19,-7.58 -16.02,24.11 46.54,30.95 16.03,-24.1 -46.55,-30.96 m -1170.9,-55.97 -16.55,23.76 45.87,31.94 16.54,-23.75 -45.86,-31.95 m 1077.82,-5.93 -16.03,24.1 46.55,30.96 16.02,-24.11 -46.54,-30.95 m -64.05,-16.82 -35.53,43.15 22.35,18.4 35.53,-43.16 -22.35,-18.39 m -1105.5,-41.14 -16.55,23.75 45.86,31.95 16.55,-23.75 -45.86,-31.95 m -91.74,-63.89 -16.54,23.75 45.87,31.95 16.54,-23.75 -45.87,-31.95 m -91.73,-63.89 -16.55,23.75 45.87,31.95 16.54,-23.75 -45.86,-31.95 m -91.74,-63.89 -16.54,23.75 45.86,31.95 16.55,-23.76 -45.87,-31.94 m -91.74,-63.89 -16.54,23.75 45.87,31.94 16.54,-23.75 -45.87,-31.94 m -91.72,-63.89 -16.55,23.75 45.87,31.95 16.54,-23.76 -45.86,-31.94 m -91.74,-63.89 -16.55,23.75 45.87,31.95 16.55,-23.76 -45.87,-31.94 m -91.74,-63.89 -16.54,23.75 45.87,31.95 16.54,-23.76 -45.87,-31.94 m -91.73,-63.89 -16.54,23.75 45.86,31.94 16.54,-23.75 -45.86,-31.94 m -91.74,-63.89 -16.54,23.75 45.87,31.94 16.54,-23.75 -45.87,-31.94 m -91.73,-63.9 -16.54,23.76 45.86,31.94 16.55,-23.75 -45.87,-31.95 m -91.73,-63.88 -16.55,23.75 45.87,31.94 16.55,-23.75 -45.87,-31.94 m -91.74,-63.9 -16.55,23.75 45.87,31.95 16.55,-23.75 -45.87,-31.95 m -91.73,-63.89 -16.54,23.76 45.86,31.95 16.55,-23.76 -45.87,-31.95 m -91.74,-63.89 -16.54,23.76 45.87,31.94 16.54,-23.75 -45.87,-31.95 m -91.73,-63.89 -16.55,23.75 45.87,31.95 16.55,-23.75 -45.87,-31.95 m -91.74,-63.88 -16.54,23.75 45.87,31.94 16.54,-23.75 -45.87,-31.94 m -91.73,-63.9 -16.55,23.76 45.87,31.94 16.55,-23.75 -45.87,-31.95 m -91.73,-63.89 -16.55,23.75 45.87,31.95 16.55,-23.75 -45.87,-31.95 m -91.74,-63.89 -16.54,23.75 45.86,31.95 16.55,-23.75 -45.87,-31.95 m -91.73,-63.89 -16.55,23.76 45.87,31.94 16.54,-23.76 -45.86,-31.94 m -91.74,-63.89 -16.54,23.75 45.86,31.95 16.55,-23.75 -45.87,-31.95 m -91.73,-63.89 -16.55,23.75 45.87,31.95 16.54,-23.76 -45.86,-31.94 m -91.73,-63.89 -16.55,23.75 45.87,31.95 16.54,-23.76 -45.86,-31.94 m -91.74,-63.889 -16.54,23.75 45.86,31.949 16.55,-23.76 -45.87,-31.939 m -91.734,-63.891 -16.547,23.75 45.868,31.949 16.546,-23.758 -45.867,-31.941 m -91.734,-63.891 -16.539,23.75 45.863,31.942 16.543,-23.75 -45.867,-31.942 m -91.731,-63.898 -16.543,23.75 45.86,31.949 16.547,-23.75 -45.864,-31.949 m -91.738,-63.879 -16.543,23.75 45.871,31.949 16.539,-23.761 -45.867,-31.938 m -91.73,-63.902 -16.547,23.761 45.871,31.938 16.543,-23.75 -45.867,-31.949 m -91.739,-63.891 -16.539,23.75 45.864,31.953 16.546,-23.75 -45.871,-31.953 m -91.73,-63.887 -16.551,23.758 45.871,31.942 16.543,-23.75 -45.863,-31.95"
             style="fill:#16203d;fill-opacity:1;fill-rule:nonzero;stroke:none"
             id="path20" />
          <path
             d="m 1445.44,4415.86 -16.04,24.11 41.34,27.48 16.03,-24.1 z m -82.66,-54.97 -16.03,24.1 41.33,27.49 16.03,-24.1 z m -82.67,-54.98 -16.03,24.11 41.34,27.48 16.03,-24.1 z m -82.66,-54.97 -16.03,24.1 41.33,27.49 16.03,-24.1 z m -82.66,-54.97 -16.03,24.1 41.33,27.49 16.03,-24.1 z m -82.66,-54.98 -16.03,24.1 41.33,27.49 16.03,-24.1 z m -82.665,-54.97 -16.031,24.1 41.332,27.49 16.027,-24.1 z m -82.664,-54.98 -16.031,24.11 41.332,27.49 16.035,-24.11 z m -82.66,-54.97 -16.036,24.11 41.336,27.48 16.028,-24.1 z m -82.664,-54.97 -16.028,24.1 41.328,27.49 16.032,-24.11 z m -82.668,-54.98 -16.028,24.11 41.336,27.48 16.024,-24.1 z m -82.657,-54.97 -16.031,24.1 41.328,27.49 16.031,-24.1 z m -82.668,-54.97 -16.023,24.1 41.328,27.49 16.024,-24.1 z m -82.66,-54.98 -16.027,24.1 41.324,27.49 16.035,-24.1 z m -82.66,-54.97 -16.035,24.1 41.34,27.49 16.023,-24.1 z m -82.668,-54.98 -16.023,24.11 41.328,27.48 16.023,-24.1 z m -82.66,-54.97 -16.027,24.1 41.332,27.49 16.023,-24.1 z m -82.6602,-54.97 -16.0313,24.1 41.3282,27.49 16.0351,-24.11 z m -82.6641,-54.98 -16.0273,24.11 41.3281,27.48 16.03125,-24.1 z m -82.6637,-54.97 -16.032,24.1 41.3324,27.49 16.0313,-24.1 z m -82.661,-54.97 -16.031,24.1 41.332,27.48 16.028,-24.09 z m -82.667,-54.98 -16.024,24.1 41.328,27.49 16.035,-24.1 -41.339,-27.49"
             style="fill:#c81e25;fill-opacity:1;fill-rule:nonzero;stroke:none"
             id="path22" />
          <path
             d="m 1545.34,4468.28 -7.46,9.06 -9.78,-6.51 -16.03,24.11 31.54,20.97 24.08,-29.24 -22.35,-18.39"
             style="fill:#c81e25;fill-opacity:1;fill-rule:nonzero;stroke:none"
             id="path24" />
          <path
             d="m 1611.47,4387.95 -33.06,40.16 22.34,18.4 33.07,-40.16 z m 66.13,-80.32 -33.06,40.16 22.34,18.4 33.07,-40.16 z m 66.13,-80.33 -33.07,40.17 22.35,18.39 33.07,-40.16 z m 66.13,-80.32 -33.06,40.16 22.35,18.4 33.06,-40.16 z m 66.13,-80.33 -33.07,40.17 22.35,18.39 33.06,-40.16 -22.34,-18.4"
             style="fill:#c81e25;fill-opacity:1;fill-rule:nonzero;stroke:none"
             id="path26" />
          <path
             d="m 1933.13,3997.25 -24.08,29.24 22.35,18.4 7.47,-9.06 9.77,6.5 16.03,-24.11 -31.54,-20.97"
             style="fill:#c81e25;fill-opacity:1;fill-rule:nonzero;stroke:none"
             id="path28" />
          <path
             d="m 3179.47,4826.1 -16.03,24.11 41.89,27.86 16.03,-24.11 z m -83.78,-55.71 -16.03,24.1 41.89,27.86 16.03,-24.1 z m -83.79,-55.72 -16.02,24.11 41.89,27.86 16.03,-24.11 z m -83.77,-55.71 -16.03,24.1 41.88,27.86 16.04,-24.1 z m -83.78,-55.72 -16.03,24.1 41.89,27.87 16.03,-24.11 z m -83.78,-55.72 -16.03,24.11 41.89,27.86 16.03,-24.1 z m -83.78,-55.71 -16.03,24.1 41.89,27.86 16.03,-24.1 z m -83.78,-55.72 -16.03,24.11 41.89,27.85 16.03,-24.1 z m -83.78,-55.71 -16.03,24.1 41.89,27.85 16.03,-24.09 z m -83.78,-55.72 -16.03,24.1 41.9,27.86 16.02,-24.1 z m -83.77,-55.71 -16.04,24.1 41.89,27.86 16.03,-24.1 z m -83.78,-55.72 -16.03,24.1 41.89,27.86 16.03,-24.1 z m -83.78,-55.72 -16.03,24.11 41.89,27.85 16.03,-24.1 z m -83.78,-55.71 -16.03,24.1 41.89,27.86 16.03,-24.1 z m -83.78,-55.72 -16.03,24.11 41.89,27.86 16.03,-24.11 -41.89,-27.86"
             style="fill:#c81e25;fill-opacity:1;fill-rule:nonzero;stroke:none"
             id="path30" />
          <path
             d="m 3280.48,4879.26 -7.46,9.07 -9.78,-6.51 -16.02,24.1 31.53,20.98 24.08,-29.24 -22.35,-18.4"
             style="fill:#c81e25;fill-opacity:1;fill-rule:nonzero;stroke:none"
             id="path32" />
          <path
             d="m 3346.61,4798.93 -33.06,40.17 22.35,18.4 33.06,-40.17 z m 66.13,-80.32 -33.06,40.16 22.35,18.4 33.06,-40.16 z m 66.13,-80.32 -33.06,40.16 22.34,18.4 33.07,-40.17 z m 66.13,-80.33 -33.07,40.16 22.35,18.4 33.06,-40.16 z m 66.13,-80.32 -33.07,40.16 22.35,18.4 33.07,-40.16 -22.35,-18.4"
             style="fill:#c81e25;fill-opacity:1;fill-rule:nonzero;stroke:none"
             id="path34" />
          <path
             d="m 3668.3,4408.2 -24.1,29.28 22.34,18.39 7.44,-9.03 9.73,6.5 16.1,-24.05 -31.51,-21.09"
             style="fill:#c81e25;fill-opacity:1;fill-rule:nonzero;stroke:none"
             id="path36" />
          <path
             d="m 5836.07,5858.57 -16.1,24.06 41.89,28.03 16.1,-24.06 z m -83.78,-56.05 -16.09,24.06 41.89,28.02 16.09,-24.05 z m -83.77,-56.05 -16.09,24.06 41.88,28.02 16.1,-24.05 z m -83.77,-56.05 -16.1,24.06 41.89,28.02 16.09,-24.05 z m -83.78,-56.05 -16.09,24.06 41.88,28.03 16.1,-24.06 z m -83.77,-56.04 -16.1,24.05 41.89,28.03 16.09,-24.06 z m -83.78,-56.06 -16.1,24.06 41.89,28.03 16.1,-24.07 z m -83.77,-56.05 -16.1,24.06 41.89,28.03 16.09,-24.06 z m -83.78,-56.05 -16.09,24.06 41.88,28.02 16.1,-24.05 z m -83.77,-56.05 -16.1,24.06 41.89,28.03 16.09,-24.06 z m -83.78,-56.05 -16.09,24.06 41.88,28.02 16.1,-24.06 z m -83.77,-56.05 -16.1,24.06 41.88,28.02 16.11,-24.06 z m -83.78,-56.05 -16.1,24.06 41.89,28.02 16.1,-24.06 z m -83.78,-56.05 -16.09,24.06 41.89,28.02 16.09,-24.06 z m -83.77,-56.05 -16.1,24.05 41.89,28.03 16.1,-24.06 z m -83.78,-56.05 -16.09,24.05 41.88,28.03 16.1,-24.06 z m -83.78,-56.05 -16.09,24.06 41.89,28.02 16.1,-24.06 z m -83.77,-56.05 -16.09,24.06 41.89,28.02 16.09,-24.06 z m -83.77,-56.05 -16.1,24.06 41.89,28.02 16.1,-24.05 z m -83.77,-56.06 -16.1,24.07 41.89,28.02 16.09,-24.06 z m -83.78,-56.05 -16.1,24.07 41.89,28.02 16.1,-24.05 z m -83.78,-56.05 -16.09,24.06 41.89,28.03 16.09,-24.06 z m -83.77,-56.05 -16.1,24.06 41.89,28.03 16.1,-24.06 z m -83.77,-56.05 -16.11,24.06 41.9,28.03 16.09,-24.06 z m -83.78,-56.05 -16.09,24.06 41.88,28.03 16.1,-24.06 z m -83.78,-56.05 -16.09,24.06 41.88,28.02 16.1,-24.05 -41.89,-28.03"
             style="fill:#c81e25;fill-opacity:1;fill-rule:nonzero;stroke:none"
             id="path38" />
          <path
             d="m 5919.84,5914.63 -16.09,24.05 20.63,13.8 16.09,-24.06 -20.63,-13.79"
             style="fill:#c81e25;fill-opacity:1;fill-rule:nonzero;stroke:none"
             id="path40" />
          <path
             d="m 5916.25,5934.15 -68.46,105.95 126,6.31 125.99,6.3 -57.54,-112.26 -57.53,-112.26 -68.46,105.96"
             style="fill:#c81e25;fill-opacity:1;fill-rule:nonzero;stroke:none"
             id="path42" />
          <path
             d="m 2050.33,2162.54 -16.1,24.06 41.89,28.02 16.1,-24.05 z m -83.78,-56.05 -16.1,24.06 41.89,28.02 16.1,-24.05 z m -83.77,-56.05 -16.1,24.06 41.89,28.02 16.1,-24.06 z m -83.78,-56.05 -16.09,24.06 41.88,28.02 16.1,-24.05 z m -83.78,-56.05 -16.08,24.06 41.89,28.02 16.08,-24.06 z m -83.76,-56.05 -16.1,24.06 41.89,28.02 16.09,-24.05 z m -83.78,-56.05 -16.1,24.06 41.89,28.02 16.1,-24.06 z m -83.77,-56.05 -16.1,24.06 41.89,28.03 16.09,-24.07 z m -83.78,-56.05 -16.1,24.05 41.89,28.03 16.1,-24.06 z m -83.77,-56.05 -16.1,24.06 41.88,28.02 16.1,-24.06 z m -83.78,-56.05 -16.1,24.05 41.89,28.03 16.1,-24.06 z m -83.78,-56.05 -16.09,24.05 41.88,28.03 16.1,-24.06 z m -83.77,-56.05 -16.09,24.05 41.88,28.03 16.09,-24.06 z m -83.776,-56.05 -16.098,24.05 41.891,28.03 16.093,-24.06 z m -83.774,-56.05 -16.097,24.05 41.887,28.03 16.093,-24.06 z m -83.781,-56.05 -16.094,24.05 41.887,28.03 16.098,-24.06 z m -83.765,-56.06 -16.106,24.06 41.891,28.03 16.097,-24.06 z m -83.782,-56.05 -16.097,24.06 41.886,28.03 16.102,-24.06 z m -83.773,-56.05 -16.094,24.07 41.891,28.02 16.094,-24.06 z m -83.774,-56.05 -16.093,24.06 41.883,28.03 16.093,-24.06 z m -83.777,-56.05 -16.094,24.07 41.887,28.01 16.094,-24.05 z m -83.777,-56.05 -16.09,24.06 41.887,28.02 16.09,-24.05 z m -83.77,-56.05 -16.097,24.062 41.886,28.02 16.102,-24.051 z m -83.773,-56.051 -16.102,24.062 41.891,28.02 16.094,-24.051 z M 39.7305,817.328 23.6328,841.391 65.5195,869.41 81.6172,845.359 Z M -44.043,761.281 -60.1484,785.34 -18.2578,813.359 -2.15625,789.313 -44.043,761.281"
             style="fill:#c81e25;fill-opacity:1;fill-rule:nonzero;stroke:none"
             id="path44" />
          <path
             d="m 2134.11,2218.59 -16.1,24.06 20.62,13.8 16.1,-24.06 -20.62,-13.8"
             style="fill:#c81e25;fill-opacity:1;fill-rule:nonzero;stroke:none"
             id="path46" />
          <path
             d="m 2130.51,2238.11 -68.46,105.96 126,6.3 125.98,6.31 -57.53,-112.26 -57.53,-112.27 -68.46,105.96"
             style="fill:#c81e25;fill-opacity:1;fill-rule:nonzero;stroke:none"
             id="path48" />
          <path
             d="m 7182.64,5105.21 -68.46,105.96 125.99,6.31 126,6.31 -57.54,-112.27 -57.53,-112.26 -68.46,105.95"
             style="fill:#16203d;fill-opacity:1;fill-rule:nonzero;stroke:none"
             id="path50" />
          <path
             d="m 7698.74,4015.06 -68.46,105.96 125.99,6.3 125.99,6.31 -57.53,-112.26 -57.54,-112.26 -68.45,105.95"
             style="fill:#16203d;fill-opacity:1;fill-rule:nonzero;stroke:none"
             id="path52" />
          <path
             d="m 251.41,1941.61 -16.117,24.04 2964.407,1987.78 395.28,-480.13 1339.89,891.07 395.24,-480.07 1852.37,1235.98 16.07,-24.07 L 5324.4,3845.7 4929.13,4325.8 3589.25,3434.73 3194.03,3914.78 251.41,1941.61"
             style="fill:#16203d;fill-opacity:1;fill-rule:nonzero;stroke:none"
             id="path54" />
        </g>
      </g>
      <path
         d="m 5460.63,5032.2 c 0,0 -532.47,457.07 -1524.57,220.56 0,0 -888.38,-209.94 -966.86,-1262.25 0,0 -16.82,-348.11 353.12,-940.71 0,0 134.51,-401.26 100.89,-1081.55 l 1129.95,475.18 907.47,1618.26 v 970.51"
         style="fill:#d3d4d3;fill-opacity:1;fill-rule:nonzero;stroke:none"
         id="path56" />
      <path
         d="m 3568.4,2460.74 c -134.12,0 -242.84,108.79 -242.84,242.82 0,134.16 108.72,242.86 242.84,242.86 134.09,0 242.79,-108.7 242.79,-242.86 0,-134.03 -108.7,-242.82 -242.79,-242.82 m 561.3,340.86 h -72.62 c -5.28,25.6 -12.26,50.35 -21.11,74.39 l 60.72,35.01 c 14.5,8.42 19.5,27 11.18,41.69 L 4047,3058.06 c -8.51,14.51 -27.16,19.51 -41.58,11.12 l -63.13,-36.39 c -16.93,19.29 -35.43,37.31 -55.23,53.79 l 35.12,60.8 c 8.37,14.68 3.38,33.2 -11.18,41.65 l -105.37,60.86 c -14.48,8.31 -33.09,3.35 -41.54,-11.19 l -36.35,-63.02 c -24.2,8.25 -49.26,14.54 -74.89,18.96 v 70.28 c 0,16.75 -13.55,30.47 -30.44,30.47 h -121.59 c -16.97,0 -30.57,-13.72 -30.57,-30.47 v -72.71 c -25.48,-5.14 -50.26,-12.18 -74.32,-21 l -34.9,60.74 c -8.52,14.65 -27.11,19.55 -41.8,11.2 l -105.37,-60.96 c -14.51,-8.33 -19.46,-26.97 -11.09,-41.52 l 36.43,-63.1 c -19.3,-16.99 -37.42,-35.4 -53.78,-55.18 l -60.79,35.09 c -14.67,8.36 -33.22,3.3 -41.64,-11.22 l -60.95,-105.38 c -8.37,-14.53 -3.43,-33.17 11.19,-41.54 l 62.99,-36.37 c -8.18,-24.23 -14.51,-49.16 -18.88,-74.77 h -70.21 c -16.9,0 -30.5,-13.76 -30.5,-30.52 v -121.66 c 0,-16.82 13.6,-30.38 30.5,-30.38 h 72.67 c 5.09,-25.62 12.08,-50.53 20.93,-74.44 l -60.77,-35.06 c -14.55,-8.43 -19.4,-27.06 -11.13,-41.56 l 60.82,-105.34 c 8.37,-14.55 27.06,-19.59 41.64,-11.25 l 63.11,36.45 c 17.03,-19.35 35.48,-37.52 55.21,-53.87 l -35.08,-60.85 c -8.43,-14.54 -3.48,-33.19 11.07,-41.53 l 105.52,-60.91 c 14.55,-8.32 33.14,-3.36 41.46,11.15 l 36.47,63.03 c 24.18,-8.16 49.12,-14.51 74.8,-18.84 v -70.37 c 0,-16.83 13.6,-30.36 30.34,-30.36 l 121.83,-0.09 c 16.78,0 30.42,13.62 30.42,30.45 v 72.66 c 25.4,5.23 50.22,12.15 74.28,20.97 l 35.14,-60.61 c 8.42,-14.69 26.87,-19.59 41.49,-11.17 l 105.49,60.89 c 14.46,8.27 19.45,26.96 11.06,41.63 l -36.45,63.03 c 19.36,16.93 37.42,35.4 53.93,55.22 l 60.84,-35.15 c 14.62,-8.42 33.06,-3.41 41.58,11.14 l 60.82,105.45 c 8.39,14.54 3.38,33.19 -11.08,41.5 l -63.06,36.46 c 8.19,24.13 14.5,49.15 18.93,74.7 h 70.29 c 16.76,0 30.32,13.65 30.35,30.54 v 121.71 c 0.07,16.85 -13.62,30.38 -30.35,30.38"
         style="fill:#1a293d;fill-opacity:1;fill-rule:nonzero;stroke:none"
         id="path58" />
      <path
         d="m 3568.4,2387.85 c -174.42,0 -315.79,141.39 -315.79,315.71 0,174.42 141.37,315.81 315.79,315.81 174.37,0 315.69,-141.39 315.69,-315.81 0,-174.32 -141.32,-315.71 -315.69,-315.71 m -0.05,700.17 c -212.36,0 -384.45,-172.12 -384.45,-384.5 0,-212.21 172.09,-384.43 384.45,-384.43 212.36,0 384.52,172.22 384.52,384.43 0,212.38 -172.16,384.5 -384.52,384.5"
         style="fill:#244162;fill-opacity:1;fill-rule:nonzero;stroke:none"
         id="path60" />
      <path
         d="m 3568.35,3088.02 c -3.62,0 -7.06,-0.08 -10.56,-0.21 v -68.79 c 3.5,0.19 6.94,0.35 10.61,0.35 174.37,0 315.69,-141.39 315.69,-315.81 0,-174.32 -141.32,-315.71 -315.69,-315.71 -3.67,0 -7.11,0.15 -10.61,0.3 v -68.82 c 3.5,-0.05 6.94,-0.24 10.56,-0.24 212.36,0 384.52,172.22 384.52,384.43 0,212.38 -172.16,384.5 -384.52,384.5"
         style="fill:#244162;fill-opacity:1;fill-rule:nonzero;stroke:none"
         id="path62" />
      <path
         d="m 4946.5,3579.28 -6.11,182 -439.93,193.56 -71.75,272.63 c 1.91,0.96 -293.94,145.8 -291.96,146.71 -156.51,-34.86 -112.11,87.9 -112.11,87.9 l 344.82,-709.04 577.04,-173.76"
         style="fill:#16203d;fill-opacity:1;fill-rule:nonzero;stroke:none"
         id="path64" />
      <path
         d="m 4919.75,3770.36 -571.75,141.75 43.57,78.14 -95.02,92.35 -63.08,-49.93 v -157.78 c 0,0 56.01,-79.94 84.31,-88.21 28.3,-8.27 350.08,-115.79 352.53,-117.17 2.45,-1.38 196.72,-66.3 196.72,-66.3 l 52.72,167.15"
         style="fill:#141928;fill-opacity:1;fill-rule:nonzero;stroke:none"
         id="path66" />
      <path
         d="m 4935.16,3653.51 c -6.96,-19.06 -3.94,-47.55 -13.72,-68.61 25.61,-13.63 92.95,-27.86 142.72,-45.9 56.85,-20.63 95.74,78.66 89.11,136.5 -3.47,30.28 -13.48,29.09 -23.39,27.9 -9.2,-1.1 -18.32,-2.21 -22.04,21.84 -6.48,41.88 -111.48,26.52 -142.75,19.05 -4.62,-31.13 -17.14,-62.15 -29.93,-90.78"
         style="fill:#fcd088;fill-opacity:1;fill-rule:nonzero;stroke:none"
         id="path68" />
      <path
         d="m 4986.99,3759.33 -55.25,-187.03 -64.71,19.57 55.23,187.03 64.73,-19.57"
         style="fill:#e9e8e7;fill-opacity:1;fill-rule:nonzero;stroke:none"
         id="path70" />
      <path
         d="m 4619.83,2292.23 c 4.43,-11.4 8.37,-17.75 11.63,-18.02 39.62,-3.25 32.35,-78.76 45.73,-86.22 65.75,-36.64 318.86,-154.67 341.19,-94.44 22.31,60.22 -213.47,196.74 -213.47,196.74 l -0.37,3.56 c -61.76,-6.54 -127.18,-2.57 -184.71,-1.62"
         style="fill:#11100e;fill-opacity:1;fill-rule:nonzero;stroke:none"
         id="path72" />
      <path
         d="m 3787.35,3349.77 2.38,6.79 c 203.21,219.83 82.96,152.78 181.19,190.86 C 3967.3,3541.06 5186,3494.7 5186,3494.7 L 4817.08,2319.78 c -39.19,-73.56 -187.63,-83.76 -205.82,-48.22 -15.08,108 205.13,899.73 205.13,899.73 l -598.03,-60.2 -431.01,238.68"
         style="fill:#16203d;fill-opacity:1;fill-rule:nonzero;stroke:none"
         id="path74" />
      <path
         d="m 3787.35,3349.77 2.38,6.79 c 203.21,219.83 184.44,147.12 282.67,185.21 l 176.25,-9.29 771.22,-124 c 0,0 -312.8,-939.05 -297.72,-1047.04 9.65,-18.87 55.98,-24.85 103.21,-15.31 l -8.28,-26.35 c -39.19,-73.56 -187.63,-83.76 -205.82,-48.22 -15.08,108 205.13,899.73 205.13,899.73 l -598.03,-60.2 -431.01,238.68"
         style="fill:#141928;fill-opacity:1;fill-rule:nonzero;stroke:none"
         id="path76" />
      <path
         d="m 4096.56,4453.52 -215.62,54.43 c 44.27,-193.05 -32.38,-425.34 -74.89,-620.8 -25.23,-110.39 -57.49,-214.55 -90.82,-322.76 -24.92,-87.11 22.25,-119.31 22.25,-119.31 l 211.3,-166.23 c 26.32,7.94 26.95,124 158.99,239.45 0,0 -18.43,66.66 138.62,287.74 19.3,27.18 5.13,43.53 22.88,72.12 70.34,465.02 36.01,419.33 -172.71,575.36"
         style="fill:#e5e5e4;fill-opacity:1;fill-rule:nonzero;stroke:none"
         id="path78" />
      <path
         d="m 4130.4,4642.5 -93.83,20.32 c 0,0 -109.73,-106.19 -133.09,-127.43 -23.36,-21.23 277.81,-215.39 277.81,-215.39 0,0 8.24,17.74 66.51,41.78 0,0 -11.21,65.67 -5.08,72.53 37.11,41.58 -112.32,208.19 -112.32,208.19"
         style="fill:#fab953;fill-opacity:1;fill-rule:nonzero;stroke:none"
         id="path80" />
      <path
         d="m 4400.82,2153.28 c 4.43,-11.39 8.37,-17.74 11.63,-18.01 39.63,-3.26 32.35,-78.77 45.73,-86.23 65.76,-36.64 318.87,-154.67 341.19,-94.43 22.31,60.22 -213.47,196.74 -213.47,196.74 l -0.37,3.55 c -61.76,-6.54 -127.19,-2.56 -184.71,-1.62"
         style="fill:#11100e;fill-opacity:1;fill-rule:nonzero;stroke:none"
         id="path82" />
      <path
         d="m 3999.35,2972.14 598.02,60.21 c 0,0 -220.2,-791.73 -205.13,-899.73 18.19,-35.55 166.63,-25.35 205.83,48.22 l 368.92,1174.91 c 0,0 -1218.7,46.36 -1215.09,52.73 -98.22,-38.09 22.02,28.97 -181.18,-190.86 l -2.38,-6.79 431.01,-238.69"
         style="fill:#16203d;fill-opacity:1;fill-rule:nonzero;stroke:none"
         id="path84" />
      <path
         d="m 4684.12,3170.95 c -16.71,-47.62 -216.18,-128.06 -263.4,-141.79 -10.92,-4.31 -23.51,-3.37 -36.59,-2.42 -7.5,0.54 -15.16,1.08 -22.75,0.62 -97.87,-2.34 -183.65,-16.63 -276.64,-19.85 -53.86,-3.62 -408.84,80.03 -348.31,377.04 5.67,27.85 -24.65,-25.7 -64.15,-79.25 -32.65,-44.25 -71.57,-88.51 -101.63,-86.82 14.93,-26.18 -18.99,-201.27 182.28,-258.24 l 246.42,11.9 604.27,58.3 -63.37,-206.18 c 0,0 108.14,244.88 143.87,346.69"
         style="fill:#141928;fill-opacity:1;fill-rule:nonzero;stroke:none"
         id="path86" />
      <path
         d="m 3900.37,4486.75 175.69,-277.26 33.34,71.41 c 0,0 -49.63,-485.02 -47.11,-483.41 2.54,1.62 91.85,443.7 91.85,443.7 l 15.27,21.89 38.72,-32.45 59.97,110.44 -18.84,33.3 -94.06,-54.77 c 0,0 -74.72,-0.44 -77.94,0.82 -3.21,1.27 -176.89,166.33 -176.89,166.33"
         style="fill:#c9c8c6;fill-opacity:1;fill-rule:nonzero;stroke:none"
         id="path88" />
      <path
         d="m 4019.32,3950.4 c 66.72,204.48 14.3,381.23 -158.07,609.63 l -269.57,-97.95 c 0,0 -33.04,-698.33 -82.96,-805.76 -77.28,-166.3 -138.67,-175.73 -138.67,-175.73 -26.9,-141.84 88.53,-376.76 182.74,-397.66 33.94,53.81 332.43,456.49 466.53,867.47"
         style="fill:#16203d;fill-opacity:1;fill-rule:nonzero;stroke:none"
         id="path90" />
      <path
         d="m 3861.36,4561.81 -33.27,-26.37 c 85.68,-172.06 -8.08,-246.73 -8.08,-246.73 l 121.71,-92.27 -109.57,-32.46 c 0,0 118.78,-265.04 54.4,-526.69 0,0 100.08,214.34 132.89,314.89 66.72,204.48 14.29,381.23 -158.08,609.63"
         style="fill:#1f2b58;fill-opacity:1;fill-rule:nonzero;stroke:none"
         id="path92" />
      <path
         d="m 4019.32,3950.4 c -49.17,-150.72 -120.46,-300.29 -192.7,-431.98 l -234.94,943.66 c 0,0 270.13,-243.71 452.88,-396.01 -4,-37.91 -12.38,-76.27 -25.24,-115.67"
         style="fill:#141928;fill-opacity:1;fill-rule:nonzero;stroke:none"
         id="path94" />
      <path
         d="m 4258.68,4375.93 -37.18,-34.87 c 12.3,-281.59 -74.96,-673.64 -212.01,-939.85 269.34,232.46 419.22,826.26 419.22,826.26 l -170.03,148.46"
         style="fill:#16203d;fill-opacity:1;fill-rule:nonzero;stroke:none"
         id="path96" />
      <path
         d="m 4277.76,3844.21 c 19.25,27.44 38.49,122.38 38.49,122.38 0,0 -6.96,25.74 -23.92,70.91 44.3,4.76 34.44,30.53 77.2,44.04 -26.35,6.58 -44.63,75.65 -58.07,97.7 -47.37,-2.75 -35.85,-46.13 -84.55,-48.98 -1.76,-202.46 13.38,-321.19 -129.5,-535.75 46.97,36.87 120.46,171.01 180.35,249.7"
         style="fill:#141928;fill-opacity:1;fill-rule:nonzero;stroke:none"
         id="path98" />
      <path
         d="m 4132.37,3643.02 c 91.97,127.46 119.41,223.88 229.55,333.46 -41.01,10.87 -68.02,65.1 -83.95,104.43 47.72,2.35 52.42,14.92 98.09,28.95 -75.65,57.88 -119.53,175.56 -110.23,264.32 l -44.33,-33.12 c 11.35,-259.67 -47.26,-499.07 -129.63,-757.01 7.47,23.38 28.84,39.31 40.5,58.97"
         style="fill:#1f2b58;fill-opacity:1;fill-rule:nonzero;stroke:none"
         id="path100" />
      <path
         d="m 4193.97,4938.05 c 0,0 91.22,58.42 180.27,1.48 89.05,-56.91 99.8,-89.89 69.7,-159.35 -30.12,-69.44 -65.37,-112.2 -27.59,-134.09 37.79,-21.88 67.58,-18.75 67.58,-18.75 0,0 -14.73,-61.37 -68.41,-72.78 -32.35,-6.88 -71.13,0.36 -71.13,0.36 0,0 -12.55,-73.61 5.74,-117.4 14.15,-33.85 -72.38,-74.16 -201.68,13.73 -96.28,65.47 -106.48,133.89 -98.93,153.67 11.04,28.9 16.18,34.43 27.42,54.45 11.23,20.02 117.03,278.68 117.03,278.68"
         style="fill:#fcd088;fill-opacity:1;fill-rule:nonzero;stroke:none"
         id="path102" />
      <path
         d="m 4193.08,4902.06 c 0,0 2.54,-157.6 -41.67,-188.38 -44.22,-30.77 -110.68,-77.51 -110.68,-77.51 0,0 -32.27,-26.63 -44.44,131.06 -12.51,162.02 -24.96,154.98 6.18,181.91 31.14,26.93 57.24,29.81 57.24,29.81 0,0 -11.88,65.85 25.76,89.89 37.62,24.04 179.61,22.19 294.55,-23.37 114.94,-45.52 200.12,-121.97 172.37,-182.37 -22.84,-49.72 -174.66,-100.74 -359.31,38.96"
         style="fill:#302015;fill-opacity:1;fill-rule:nonzero;stroke:none"
         id="path104" />
      <path
         d="m 4546.69,4925.1 c -23.25,-56.17 -155.49,82.87 -292.05,108.67 -58.04,10.97 -113.54,2.92 -148.4,-29.08 -34.87,-31.98 29.64,-65.65 29.64,-65.65 0,0 -48.37,21.41 -68.01,23.3 -19.62,1.88 -46.98,-75.53 -54.11,-112.32 -6.19,-31.93 -28.91,-145.41 35.93,-207.54 19.61,13.77 67.38,47.29 101.72,71.2 44.21,30.78 41.67,188.38 41.67,188.38 184.65,-139.7 336.47,-88.68 359.31,-38.96 8.97,19.52 6.14,40.71 -5.7,62"
         style="fill:#241a13;fill-opacity:1;fill-rule:nonzero;stroke:none"
         id="path106" />
      <path
         d="m 4167.52,4724.6 c -11.28,-43.43 -55.61,-69.49 -99.02,-58.21 -43.41,11.27 -69.48,55.61 -58.19,99.03 11.27,43.39 55.6,69.46 99.01,58.18 43.42,-11.28 69.46,-55.6 58.2,-99"
         style="fill:#fcd088;fill-opacity:1;fill-rule:nonzero;stroke:none"
         id="path108" />
      <path
         d="m 4086.97,4679.89 c 0,0 -25.8,16.35 -1.66,37.9 12.19,10.89 32.9,0.4 32.9,0.4 0,0 -5.34,40.14 -30.76,37.37 -25.4,-2.78 -30.12,-25.82 -30.12,-25.82 0,0 -1.03,40.3 36.53,37.36 37.55,-2.94 28.18,-55.43 28.18,-55.43 0,0 -34.24,15.7 -38.3,-13.07 -1.78,-12.51 3.23,-18.71 3.23,-18.71"
         style="fill:#fab953;fill-opacity:1;fill-rule:nonzero;stroke:none"
         id="path110" />
      <path
         d="m 4342.13,4555.51 c 0,0 -27.87,16.76 -13,35.16 8.59,10.65 18.87,17.64 18.87,17.64 0,0 -63.88,-27.48 -5.87,-52.8"
         style="fill:#fab953;fill-opacity:1;fill-rule:nonzero;stroke:none"
         id="path112" />
      <path
         d="m 4100.42,4316.67 66.43,-45.86 c 0,0 -220.1,-699.81 11.68,-881.25 63.42,-19.59 94.61,-13.63 94.61,-13.63 l 10.54,81.6 c 0,0 -145.63,85.35 -157.04,262.25 -15.92,246.88 64.35,552.14 64.35,552.14 l 54.13,38.81 -66.99,29.43 -77.71,-23.49"
         style="fill:#c81e25;fill-opacity:1;fill-rule:nonzero;stroke:none"
         id="path114" />
      <path
         d="m 3918.27,4557.07 272.55,-216.15 57.07,46.7 22.41,-31.48 -58.73,-110.46 -23.15,88.07 -117.93,-58.2 -185.41,247.01 33.19,34.51"
         style="fill:#e5e5e4;fill-opacity:1;fill-rule:nonzero;stroke:none"
         id="path116" />
      <path
         d="m 4190.82,4340.92 -191.05,117.52 c 1.1,-46.23 9.44,-52.13 6.96,-97.16 l 63.76,-85.73 117.93,58.2 23.15,-88.07 49.26,89.78 c 2.06,5.51 -12.28,38.03 -12.28,38.03 l -57.73,-32.57"
         style="fill:#ffffff;fill-opacity:1;fill-rule:nonzero;stroke:none"
         id="path118" />
      <path
         d="m 3427.56,1966.89 2006.21,3088.12 c 73.63,-47.26 211.36,-165.67 280.63,-240.2 222.65,-239.5 417.42,-516.46 395.67,-1008.44 -4.55,-106.22 -149.62,-237.16 -32.59,-436.65 0,0 249.47,-391.22 245.37,-458.54 0,0 9.7,-122.79 -179.29,-136.07 0,0 -51.93,-16.95 -32.9,-120.17 l 26.43,-124.49 c 0,0 5.24,-68.9 -96.53,-97.22 0,0 -15.28,-16.49 10.08,-45.61 0,0 52.03,-45.62 -23.43,-155.36 -27.08,-39.4 -68.67,-90.31 -35.55,-188.18 0,0 45.13,-189.23 -27.41,-238.55 0,0 -79.97,-105.88 -426.1,-81.26 -115.43,7.98 -327.5,51.68 -453.09,-97.82 -4.11,-7.53 -66.99,-125.61 -27.03,-235.49 17.31,-47.66 22.59,-97.65 -35.98,-113.15 -54.34,-14.37 -107.82,4.03 -160.59,14.66 -99.1,19.95 -196.12,46.96 -291.57,78.88 -848.52,318.34 -1142.33,595.54 -1142.33,595.54"
         style="fill:#1a293d;fill-opacity:1;fill-rule:nonzero;stroke:none"
         id="path120" />
      <path
         d="m 3427.56,1966.89 c 0.68,1.33 1.6,2.79 2.75,4.35 l 0.1,0.04 -2.85,-4.39"
         style="fill:#c5c4c2;fill-opacity:1;fill-rule:nonzero;stroke:none"
         id="path122" />
      <path
         d="m 3430.31,1971.24 c 0.18,0.24 0.35,0.47 0.54,0.71 l -0.44,-0.67 -0.1,-0.04"
         style="fill:#9e9f9f;fill-opacity:1;fill-rule:nonzero;stroke:none"
         id="path124" />
      <path
         d="m 3427.56,1966.89 v 0 l 2.85,4.39 0.44,0.67 v 0 l -3.29,-5.06 m 3.29,5.06 2002.92,3083.06 c 0,0 828.3,-754.14 190.72,-1788.14 0,0 -269.94,-428.6 -864.32,-632.91 C 4182.42,2435.35 3493.96,2054.1 3430.85,1971.95"
         style="fill:#17202d;fill-opacity:1;fill-rule:nonzero;stroke:none"
         id="path126" />
      <path
         d="m 5432.32,5056.37 c 0,0 692.85,-615.29 91.03,-1722.34 0,0 -241.48,-449.51 -835.85,-653.82 -590.7,-203.06 -1226.02,-641.92 -1261.49,-711.96 l 2006.31,3088.12"
         style="fill:#f4f5f5;fill-opacity:1;fill-rule:nonzero;stroke:none"
         id="path128" />
      <path
         d="m 5410.4,4772.03 c -147.12,0 -266.38,119.32 -266.38,266.34 0,147.16 119.26,266.39 266.38,266.39 147.09,0 266.32,-119.23 266.32,-266.39 0,-147.02 -119.23,-266.34 -266.32,-266.34 z m 615.68,373.87 h -79.64 c -5.79,28.09 -13.45,55.24 -23.16,81.6 l 66.61,38.41 c 15.91,9.24 21.38,29.62 12.25,45.73 l -66.76,115.58 c -9.34,15.92 -29.78,21.4 -45.61,12.21 l -69.24,-39.93 c -18.57,21.16 -38.86,40.93 -60.58,59.01 l 38.52,66.69 c 9.18,16.09 3.7,36.41 -12.26,45.68 l -115.59,66.77 c -15.88,9.11 -36.3,3.67 -45.56,-12.29 l -39.87,-69.12 c -26.55,9.04 -54.04,15.94 -82.15,20.8 v 77.09 c 0,18.37 -14.88,33.41 -33.38,33.41 h -133.38 c -18.61,0 -33.54,-15.04 -33.54,-33.41 v -79.75 c -27.95,-5.64 -55.13,-13.37 -81.52,-23.04 l -38.29,66.63 c -9.33,16.06 -29.73,21.43 -45.85,12.28 l -115.58,-66.87 c -15.9,-9.14 -21.33,-29.59 -12.15,-45.55 l 39.95,-69.21 c -21.17,-18.63 -41.05,-38.83 -58.99,-60.53 l -66.68,38.49 c -16.1,9.17 -36.44,3.63 -45.67,-12.31 l -66.87,-115.58 c -9.18,-15.94 -3.75,-36.39 12.29,-45.57 l 69.08,-39.9 c -8.97,-26.57 -15.91,-53.91 -20.71,-82 h -77.01 c -18.54,0 -33.46,-15.1 -33.46,-33.49 V 4964.3 c 0,-18.47 14.92,-33.35 33.46,-33.35 h 79.73 c 5.57,-28.1 13.24,-55.42 22.94,-81.64 l -66.66,-38.47 c -15.96,-9.24 -21.28,-29.68 -12.2,-45.58 l 66.71,-115.55 c 9.18,-15.96 29.68,-21.49 45.67,-12.34 l 69.24,39.98 c 18.67,-21.22 38.9,-41.14 60.56,-59.09 l -38.5,-66.74 c -9.23,-15.96 -3.8,-36.4 12.15,-45.56 l 115.75,-66.81 c 15.95,-9.14 36.35,-3.68 45.48,12.22 l 40.01,69.14 c 26.52,-8.94 53.87,-15.91 82.05,-20.66 v -77.19 c 0,-18.46 14.91,-33.3 33.27,-33.3 l 133.63,-0.1 c 18.41,0 33.38,14.94 33.38,33.4 v 79.7 c 27.86,5.74 55.09,13.33 81.47,23 l 38.55,-66.47 c 9.23,-16.12 29.47,-21.5 45.51,-12.26 l 115.72,66.79 c 15.85,9.08 21.33,29.57 12.12,45.66 l -39.98,69.14 c 21.23,18.57 41.05,38.84 59.15,60.57 l 66.74,-38.56 c 16.04,-9.23 36.28,-3.73 45.6,12.23 l 66.72,115.66 c 9.21,15.95 3.7,36.41 -12.15,45.53 l -69.17,39.99 c 8.98,26.47 15.92,53.92 20.76,81.94 h 77.09 c 18.39,0 33.29,14.97 33.31,33.5 v 133.5 c 0.08,18.48 -14.94,33.32 -33.31,33.32"
         style="fill:#1a293d;fill-opacity:1;fill-rule:nonzero;stroke:none"
         id="path130" />
      <path
         d="m 5410.4,4692.07 c -191.32,0 -346.4,155.09 -346.4,346.3 0,191.32 155.08,346.42 346.4,346.42 191.27,0 346.29,-155.1 346.29,-346.42 0,-191.21 -155.02,-346.3 -346.29,-346.3 z m -0.05,768.01 c -232.95,0 -421.71,-188.79 -421.71,-421.75 0,-232.78 188.76,-421.68 421.71,-421.68 232.94,0 421.78,188.9 421.78,421.68 0,232.96 -188.84,421.75 -421.78,421.75"
         style="fill:#244162;fill-opacity:1;fill-rule:nonzero;stroke:none"
         id="path132" />
      <path
         d="m 5410.35,5460.08 c -3.97,0 -7.74,-0.08 -11.58,-0.22 v -75.46 c 3.84,0.2 7.61,0.39 11.63,0.39 191.27,0 346.29,-155.1 346.29,-346.42 0,-191.21 -155.02,-346.3 -346.29,-346.3 -4.02,0 -7.79,0.17 -11.63,0.32 v -75.49 c 3.84,-0.05 7.61,-0.25 11.58,-0.25 232.94,0 421.78,188.9 421.78,421.68 0,232.96 -188.84,421.75 -421.78,421.75"
         style="fill:#244162;fill-opacity:1;fill-rule:nonzero;stroke:none"
         id="path134" />
      <path
         d="m 4376.1,5435.05 c -91.45,0 -165.6,74.19 -165.6,165.59 0,91.48 74.15,165.61 165.6,165.61 91.45,0 165.57,-74.13 165.57,-165.61 0,-91.4 -74.12,-165.59 -165.57,-165.59 z m 382.77,232.44 h -49.51 c -3.61,17.47 -8.37,34.34 -14.4,50.73 l 41.41,23.87 c 9.88,5.75 13.29,18.42 7.61,28.44 l -41.5,71.85 c -5.8,9.9 -18.52,13.3 -28.35,7.59 l -43.05,-24.82 c -11.54,13.16 -24.16,25.44 -37.67,36.68 l 23.95,41.46 c 5.71,10.01 2.3,22.64 -7.62,28.4 l -71.86,41.51 c -9.87,5.67 -22.57,2.28 -28.32,-7.64 l -24.79,-42.97 c -16.51,5.62 -33.6,9.91 -51.07,12.93 v 47.93 c 0,11.42 -9.25,20.77 -20.75,20.77 h -82.92 c -11.58,0 -20.85,-9.35 -20.85,-20.77 v -49.58 c -17.38,-3.51 -34.28,-8.31 -50.68,-14.33 l -23.81,41.43 c -5.8,9.98 -18.48,13.32 -28.5,7.63 l -71.85,-41.57 c -9.9,-5.68 -13.27,-18.39 -7.56,-28.32 l 24.84,-43.03 c -13.17,-11.58 -25.53,-24.14 -36.68,-37.62 l -41.45,23.93 c -10.01,5.7 -22.66,2.25 -28.4,-7.65 l -41.56,-71.86 c -5.72,-9.91 -2.34,-22.63 7.62,-28.34 l 42.96,-24.8 c -5.58,-16.51 -9.89,-33.51 -12.87,-50.98 h -47.88 c -11.53,0 -20.81,-9.39 -20.81,-20.82 v -82.95 c 0,-11.48 9.28,-20.73 20.81,-20.73 h 49.56 c 3.47,-17.47 8.23,-34.46 14.27,-50.76 l -41.45,-23.91 c -9.92,-5.75 -13.22,-18.45 -7.59,-28.35 l 41.48,-71.83 c 5.71,-9.92 18.46,-13.36 28.39,-7.67 l 43.05,24.86 c 11.61,-13.2 24.19,-25.59 37.65,-36.74 l -23.93,-41.49 c -5.74,-9.93 -2.37,-22.63 7.55,-28.33 l 71.96,-41.53 c 9.92,-5.68 22.59,-2.29 28.27,7.6 l 24.88,42.98 c 16.48,-5.56 33.49,-9.89 51,-12.84 v -47.99 c 0,-11.48 9.27,-20.71 20.69,-20.71 l 83.08,-0.06 c 11.44,0 20.75,9.29 20.75,20.77 v 49.55 c 17.31,3.57 34.24,8.28 50.65,14.3 l 23.96,-41.33 c 5.74,-10.02 18.32,-13.36 28.29,-7.62 l 71.94,41.52 c 9.87,5.65 13.27,18.39 7.54,28.39 l -24.85,42.98 c 13.2,11.55 25.52,24.14 36.78,37.66 l 41.48,-23.97 c 9.97,-5.75 22.55,-2.32 28.36,7.6 l 41.47,71.91 c 5.73,9.91 2.31,22.63 -7.55,28.3 l -43,24.86 c 5.57,16.46 9.89,33.52 12.9,50.94 h 47.93 c 11.43,0 20.69,9.31 20.7,20.83 v 83 c 0.05,11.49 -9.28,20.71 -20.7,20.71"
         style="fill:#1a293d;fill-opacity:1;fill-rule:nonzero;stroke:none"
         id="path136" />
      <path
         d="m 4376.1,5385.35 c -118.94,0 -215.34,96.42 -215.34,215.29 0,118.94 96.4,215.36 215.34,215.36 118.91,0 215.29,-96.42 215.29,-215.36 0,-118.87 -96.38,-215.29 -215.29,-215.29 z m -0.04,477.46 c -144.81,0 -262.15,-117.37 -262.15,-262.2 0,-144.71 117.34,-262.15 262.15,-262.15 144.83,0 262.23,117.44 262.23,262.15 0,144.83 -117.4,262.2 -262.23,262.2"
         style="fill:#244162;fill-opacity:1;fill-rule:nonzero;stroke:none"
         id="path138" />
      <path
         d="m 4376.06,5862.81 c -2.45,0 -4.8,-0.05 -7.18,-0.13 v -46.92 c 2.38,0.13 4.73,0.24 7.22,0.24 118.91,0 215.29,-96.42 215.29,-215.36 0,-118.87 -96.38,-215.29 -215.29,-215.29 -2.49,0 -4.84,0.1 -7.22,0.2 v -46.94 c 2.38,-0.02 4.73,-0.15 7.18,-0.15 144.83,0 262.23,117.44 262.23,262.15 0,144.83 -117.4,262.2 -262.23,262.2"
         style="fill:#244162;fill-opacity:1;fill-rule:nonzero;stroke:none"
         id="path140" />
      <path
         d="m 4629.84,3579.28 -6.13,182 -533.07,237.9 -229.39,560.85 c 1.91,0.96 -84.58,-46.7 -82.6,-45.79 -156.5,-34.85 -186.97,-52.16 -186.97,-52.16 l 344.82,-709.04 693.34,-173.76"
         style="fill:#16203d;fill-opacity:1;fill-rule:nonzero;stroke:none"
         id="path142" />
      <path
         d="m 4618.49,3653.52 c -6.96,-19.07 -3.94,-47.56 -13.72,-68.62 25.61,-13.63 92.95,-27.86 142.71,-45.9 56.86,-20.63 95.75,78.66 89.12,136.5 -6.69,58.38 -37.69,-0.22 -45.43,49.74 -6.49,41.88 -111.48,26.52 -142.75,19.05 -4.62,-31.14 -17.14,-62.15 -29.93,-90.77"
         style="fill:#fcd088;fill-opacity:1;fill-rule:nonzero;stroke:none"
         id="path144" />
      <path
         d="m 4670.31,3759.33 -55.25,-187.03 -64.7,19.57 55.24,187.03 64.71,-19.57"
         style="fill:#e9e8e7;fill-opacity:1;fill-rule:nonzero;stroke:none"
         id="path146" />
      <path
         d="m 1939.29,3215.25 h -327.25 l -0.01,418.56 h -155.61 l 319.05,319.05 319.05,-319.05 h -155.23 v -418.56"
         style="fill:#b2b8c7;fill-opacity:1;fill-rule:nonzero;stroke:none"
         id="path148" />
      <path
         d="m 2970.73,2956.98 -367.97,367.97 -367.97,-367.97 h 179.48 v -482.73 h 377.43 l 0.01,482.74 179.02,-0.01"
         style="fill:#16203d;fill-opacity:1;fill-rule:nonzero;stroke:none"
         id="path150" />
      <path
         d="m 2708.32,3783.02 h -210.87 v 269.72 h -100.28 l 205.59,205.6 205.6,-205.6 h -100.03 l -0.01,-269.72"
         style="fill:#7b88a3;fill-opacity:1;fill-rule:nonzero;stroke:none"
         id="path152" />
      <path
         d="m 6882.45,4216.17 -0.01,367.6 H 6746.1 l 280.22,280.21 280.2,-280.21 h -136.67 v -367.59 l -287.4,-0.01"
         style="fill:#b2b8c7;fill-opacity:1;fill-rule:nonzero;stroke:none"
         id="path154" />
      <path
         d="m 6150.88,4027.33 323.17,323.17 323.18,-323.18 h -157.64 v -423.96 h -331.46 l -0.01,423.97 h -157.24"
         style="fill:#16203d;fill-opacity:1;fill-rule:nonzero;stroke:none"
         id="path156" />
      <path
         d="m 6293.49,5132.94 180.56,180.57 180.57,-180.57 h -88.07 v -236.87 h -185.2 l -0.01,236.87 h -87.85"
         style="fill:#c81e25;fill-opacity:1;fill-rule:nonzero;stroke:none"
         id="path158" />
      <path
         d="m 1602.87,5409.25 c 208.16,0 416.33,0 624.49,0 209.33,0 418.68,0 628.01,0 1.05,0 2.1,0 3.16,0 86.08,0 157.93,52.06 157.93,114.44 0,62.37 -71.85,114.44 -157.93,114.44 -209.35,0 -418.7,0 -628.05,0 -208.17,0 -416.33,0 -624.49,0 -1.04,0 -2.08,0 -3.12,0 -86.09,0 -157.93,-52.07 -157.93,-114.44 0,-62.38 71.84,-114.44 157.93,-114.44"
         style="fill:#e9e6e8;fill-opacity:1;fill-rule:nonzero;stroke:none"
         id="path160" />
      <path
         d="m 3080.71,5889.79 c 136.19,0 272.4,0 408.59,0 62.38,0 114.43,52.06 114.43,114.44 0,62.38 -52.05,114.43 -114.43,114.43 -136.19,0 -272.4,0 -408.59,0 -62.38,0 -114.44,-52.05 -114.44,-114.43 0,-62.38 52.06,-114.44 114.44,-114.44"
         style="fill:#e9e6e8;fill-opacity:1;fill-rule:nonzero;stroke:none"
         id="path162" />
      <path
         d="m 6688.01,5573.11 c 136.2,0 272.39,0 408.59,0 62.38,0 114.44,52.06 114.44,114.44 0,62.38 -52.06,114.43 -114.44,114.43 -136.2,0 -272.39,0 -408.59,0 -62.38,0 -114.43,-52.05 -114.43,-114.43 0,-62.38 52.05,-114.44 114.43,-114.44"
         style="fill:#e9e6e8;fill-opacity:1;fill-rule:nonzero;stroke:none"
         id="path164" />
      <path
         d="m 7172.15,2204.66 c 136.19,0 272.39,0 408.58,0 62.39,0 114.44,52.05 114.44,114.43 0,62.38 -52.05,114.44 -114.44,114.44 -136.19,0 -272.39,0 -408.58,0 -62.38,0 -114.44,-52.06 -114.44,-114.44 0,-62.38 52.06,-114.43 114.44,-114.43"
         style="fill:#e9e6e8;fill-opacity:1;fill-rule:nonzero;stroke:none"
         id="path166" />
      <path
         d="m 2812.16,1272.53 c 136.2,0 272.4,0 408.58,0 62.39,0 114.45,52.06 114.45,114.44 0,62.39 -52.06,114.44 -114.45,114.44 -136.18,0 -272.38,0 -408.58,0 -62.37,0 -114.44,-52.05 -114.44,-114.44 0,-62.38 52.07,-114.44 114.44,-114.44"
         style="fill:#e9e6e8;fill-opacity:1;fill-rule:nonzero;stroke:none"
         id="path168" />
      <path
         d="m 1977.23,4850.27 c 136.19,0 272.39,0 408.59,0 62.38,0 114.42,52.06 114.42,114.44 0,62.38 -52.04,114.43 -114.42,114.43 -136.2,0 -272.4,0 -408.59,0 -62.38,0 -114.44,-52.05 -114.44,-114.43 0,-62.38 52.06,-114.44 114.44,-114.44"
         style="fill:#e9e6e8;fill-opacity:1;fill-rule:nonzero;stroke:none"
         id="path170" />
      <path
         d="m 6437.37,1816 c 150.84,0 301.68,0 452.51,0 151.69,0 303.39,0 455.07,0 h 2.29 c 62.37,0 114.43,52.06 114.43,114.44 0,62.37 -52.06,114.43 -114.43,114.43 -151.69,0 -303.39,0 -455.09,0 -150.84,0 -301.68,0 -452.52,0 h -2.26 c -62.39,0 -114.44,-52.06 -114.44,-114.43 0,-62.38 52.05,-114.44 114.44,-114.44"
         style="fill:#e9e6e8;fill-opacity:1;fill-rule:nonzero;stroke:none"
         id="path172" />
    </g>
  </g>
</svg>
